<?xml version="1.0" encoding="UTF-8"?>
<svg width="620px" height="556px" viewBox="0 0 620 556" version="1.1" xmlns="http://www.w3.org/2000/svg" xmlns:xlink="http://www.w3.org/1999/xlink">
    <!-- Generator: Sketch 52.5 (67469) - http://www.bohemiancoding.com/sketch -->
    <title>community</title>
    <desc>Created with Sketch.</desc>
    <g id="Page-1" stroke="none" stroke-width="1" fill="none" fill-rule="evenodd">
        <g id="community" fill-rule="nonzero">
            <path d="M502.75605,265 C546.513818,265 581.663501,228.25 581.663501,182.5 C581.663501,136.75 546.513818,100 502.75605,100 C458.998282,100 423.848599,136.75 423.848599,182.5 C423.848599,228.25 458.998282,265 502.75605,265 Z M598.162332,314.5 C586.684884,293.5 573.055416,276.25 559.425947,264.25 C543.644457,276.25 523.558924,283.75 502.03871,283.75 C484.822538,283.75 469.041048,279.25 455.411579,271 C466.889027,296.5 473.345091,322.75 474.779772,346 C476.931793,381.25 466.171686,408.25 444.651472,420.25 C440.34743,423.25 435.326046,424.75 430.304663,425.5 C428.869982,434.5 428.152642,444.25 428.152642,454 C428.152642,510.25 448.955515,556 474.779772,556 C490.561262,556 497.734667,539.5 502.03871,514 C505.625412,539.5 513.516157,556 528.580307,556 C554.404563,556 575.207437,510.25 575.207437,454 C575.207437,441.25 573.772756,429.25 572.338075,418 C583.098182,429.25 593.858289,433.75 603.901055,427.75 C627.573291,414.25 624.703929,364 598.162332,314.5 Z M116.82688,265 C160.584649,265 195.734331,228.25 195.734331,182.5 C195.734331,136.75 160.584649,100 116.82688,100 C73.0691121,100 37.9194294,136.75 37.9194294,182.5 C38.6367698,228.25 73.7864526,265 116.82688,265 Z M174.214118,420.25 C138.347094,399.25 135.477732,337.75 164.171351,271 C150.541882,279.25 134.760392,283.75 117.544221,283.75 C96.024007,283.75 76.6558144,276.25 60.1569838,264.25 C46.5275149,276.25 32.8980461,293.5 21.4205987,314.5 C-4.403658,364 -7.27301986,414.25 14.9645345,427.75 C25.007301,433.75 35.767408,429.25 46.5275149,418 C44.3754936,429.25 43.6581531,441.25 43.6581531,454 C43.6581531,510.25 64.4610265,556 90.2852832,556 C106.066773,556 113.240178,539.5 117.544221,514 C121.130923,539.5 129.021668,556 144.803159,556 C170.627415,556 191.430289,510.25 191.430289,454 C191.430289,443.5 190.712948,434.5 189.278267,424.75 C183.539544,424 178.51816,422.5 174.214118,420.25 Z" id="Shape" fill="#112F41"></path>
            <path d="M309,201 C362.014925,201 405,156 405,100.5 C405,45 362.014925,0 309,0 C255.985075,0 213,45 213,100.5 C213,156 255.985075,201 309,201 Z" id="Path" fill="#52B99F"></path>
            <path d="M433.695415,398.92 C460.927747,383.136842 457.344546,320.755789 425.812372,260.629474 C412.196206,235.075789 395.713478,214.031579 378.514111,199 C359.164822,214.031579 334.799051,223.050526 309,223.050526 C283.200949,223.050526 258.835178,214.031579 239.485889,199 C223.003162,214.031579 205.803794,235.075789 192.187628,260.629474 C160.655454,320.755789 157.072253,382.385263 184.304585,398.92 C196.48747,406.435789 209.386996,400.423158 223.003162,386.894737 C220.853241,400.423158 219.41996,415.454737 219.41996,431.237895 C219.41996,500.383158 245.219012,556 276.034545,556 C294.667194,556 304.700158,535.707368 309,504.892632 C313.299842,535.707368 322.616166,556 341.965455,556 C373.497629,556 399.29668,500.383158 399.29668,431.237895 C399.29668,415.454737 397.863399,401.174737 395.713478,386.894737 C408.613004,401.174737 421.51253,406.435789 433.695415,398.92 Z" id="Path" fill="#52B99F"></path>
        </g>
    </g>
</svg>