<?xml version="1.0" encoding="UTF-8"?>
<svg width="1986px" height="2148px" viewBox="0 0 1986 2148" version="1.1" xmlns="http://www.w3.org/2000/svg" xmlns:xlink="http://www.w3.org/1999/xlink">
    <!-- Generator: Sketch 52.5 (67469) - http://www.bohemiancoding.com/sketch -->
    <title>list</title>
    <desc>Created with Sketch.</desc>
    <g id="Page-1" stroke="none" stroke-width="1" fill="none" fill-rule="evenodd">
        <g id="list">
            <path d="M862.453086,936.125 C838.020988,936.125 816.032099,958.070423 816.032099,982.454225 C816.032099,1006.83803 835.577778,1028.78345 862.453086,1028.78345 L1932.57901,1028.78345 C1957.01111,1028.78345 1979,1006.83803 1979,982.454225 C1979,958.070423 1959.45432,936.125 1932.57901,936.125 L862.453086,936.125 Z M1375.52716,1121.4419 C1375.52716,1121.4419 1373.08395,1121.4419 1373.08395,1121.4419 L862.453086,1121.4419 C850.237037,1121.4419 838.020988,1126.31866 828.248148,1133.6338 C818.475309,1143.38732 813.588889,1155.57923 813.588889,1167.77113 C813.588889,1179.96303 818.475309,1192.15493 828.248148,1201.90845 C838.020988,1211.66197 850.237037,1214.10035 862.453086,1214.10035 L1373.08395,1214.10035 C1385.3,1214.10035 1397.51605,1209.22359 1407.28889,1201.90845 C1417.06173,1194.59331 1421.94815,1182.40141 1421.94815,1170.20951 C1421.94815,1158.01761 1417.06173,1145.8257 1409.7321,1136.07218 C1399.95926,1126.31866 1387.74321,1121.4419 1375.52716,1121.4419 Z M327.390123,1494.51408 C146.592593,1494.51408 0,1640.8169 0,1821.25704 C0,2001.69718 146.592593,2148 327.390123,2148 C508.187654,2148 652.337037,2001.69718 652.337037,1821.25704 C652.337037,1640.8169 505.744444,1494.51408 327.390123,1494.51408 Z M327.390123,763 C146.592593,763 0,909.302817 0,1089.74296 C0,1270.1831 146.592593,1416.48592 327.390123,1416.48592 C508.187654,1416.48592 652.337037,1270.1831 652.337037,1089.74296 C652.337037,909.302817 505.744444,763 327.390123,763 Z M862.453086,1682.26937 C835.577778,1682.26937 816.032099,1704.21479 816.032099,1728.59859 C816.032099,1752.98239 838.020988,1774.92782 862.453086,1774.92782 L1932.57901,1774.92782 C1959.45432,1774.92782 1979,1752.98239 1979,1728.59859 C1979,1704.21479 1957.01111,1682.26937 1932.57901,1682.26937 L862.453086,1682.26937 Z M1375.52716,1867.58627 L1373.08395,1867.58627 L862.453086,1867.58627 L857.566667,1867.58627 C833.134568,1870.02465 813.588889,1891.97007 813.588889,1916.35387 C816.032099,1940.73768 835.577778,1960.24472 862.453086,1960.24472 L1373.08395,1960.24472 C1385.3,1960.24472 1397.51605,1955.36796 1407.28889,1948.05282 C1417.06173,1938.2993 1421.94815,1928.54577 1421.94815,1916.35387 C1421.94815,1904.16197 1417.06173,1891.97007 1409.7321,1882.21655 C1402.40247,1872.46303 1387.74321,1867.58627 1375.52716,1867.58627 Z" id="Shape" fill="#112F41" fill-rule="nonzero"></path>
            <path d="M0,326 C0,506.029851 146.516854,652 327.220974,652 C507.925094,652 652,506.029851 652,326 C652,240.850746 620.254682,165.432836 566.531835,107.044776 L366.292135,442.776119 C358.966292,454.940299 346.756554,462.238806 332.104869,464.671642 C317.453184,467.104478 302.801498,462.238806 293.033708,452.507463 L175.820225,340.597015 C166.052434,330.865672 161.168539,321.134328 161.168539,306.537313 C161.168539,294.373134 166.052434,282.208955 173.378277,272.477612 C183.146067,262.746269 192.913858,257.880597 207.565543,257.880597 C219.775281,257.880597 231.985019,262.746269 241.752809,272.477612 L315.011236,343.029851 L493.273408,46.2238806 C444.434457,17.0298507 388.269663,0 327.220974,0 C146.516854,0 0,145.970149 0,326 Z" id="Path" fill="#378687" fill-rule="nonzero"></path>
            <path d="M1375.60643,372 C1375.60643,372 1373.16466,372 1373.16466,372 L862.835341,372 C850.626506,372 838.417671,376.842105 828.650602,384.105263 C818.883534,393.789474 814,405.894737 814,418 C814,430.105263 818.883534,442.210526 828.650602,451.894737 C838.417671,461.578947 850.626506,464 862.835341,464 L1373.16466,464 C1385.37349,464 1397.58233,461.578947 1407.3494,451.894737 C1417.11647,442.210526 1422,432.526316 1422,418 C1422,405.894737 1417.11647,393.789474 1409.79116,384.105263 C1400.0241,376.842105 1387.81526,372 1375.60643,372 Z" id="Path" fill="#378687" fill-rule="nonzero"></path>
            <path d="M866.972746,188 C854.72956,188 842.486373,192.80985 832.691824,200.024624 C822.897275,209.644323 818,221.668948 818,233.693572 C818,245.718196 822.897275,257.74282 832.691824,267.362519 C842.486373,276.982219 854.72956,281.792068 866.972746,279.387143 L1939.47589,279.387143 C1963.96226,279.387143 1986,257.74282 1986,233.693572 C1986,209.644323 1966.4109,188 1939.47589,188 L866.972746,188 Z" id="Path" fill="#378687" fill-rule="nonzero"></path>
            <path d="M1375.60643,1868 L1373.16466,1868 L862.835341,1868 L857.951807,1868 C833.534137,1870.42105 814,1892.21053 814,1916.42105 C816.441767,1940.63158 835.975904,1960 862.835341,1960 L1373.16466,1960 C1385.37349,1960 1397.58233,1955.15789 1407.3494,1947.89474 C1417.11647,1938.21053 1422,1928.52632 1422,1916.42105 C1422,1904.31579 1417.11647,1892.21053 1409.79116,1882.52632 C1402.46586,1872.84211 1387.81526,1868 1375.60643,1868 Z" id="Path"></path>
        </g>
    </g>
</svg>