<?xml version="1.0" encoding="UTF-8"?>
<svg width="100pt" height="100pt" version="1.1" viewBox="0 0 100 100" xmlns="http://www.w3.org/2000/svg">
 <g>
  <path d="m97.574 60.152c-0.15234-0.60547-0.75781-1.0625-1.5156-1.0625-13.031-0.45312-21.668 8.0312-18.332 22.879l-3.7891 3.7891-3.6367-3.6367c0.60547-2.5742 1.9688-10.758-2.2734-16.363-4.8438-6.668-15.453-6.668-15.906-6.668-0.75781 0-1.2109 0.45312-1.5156 1.0625 0 0.30469-0.91016 3.332-0.91016 6.9688 0 3.332 0.60547 7.1211 2.8789 10.152 4.3945 5.6055 12.879 6.5156 15.305 6.5156l4.5469 4.5469v2.7266c0 0.91016 0.75781 1.5156 1.5156 1.5156 0.75781 0 1.5156-0.60547 1.5156-1.5156v-2.7266l4.5469-4.5469c14.996-0.45703 21.664-10.605 17.57-23.637z"/>
  <path d="m64.242 17.273h-21.211c-3.6367 7.5742-6.8164 13.031-8.7891 19.395h38.938c-2.4219-7.2734-5.9062-13.184-8.9375-19.395z"/>
  <path d="m73.938 39.848h-40.605c-0.30469 1.3633-0.60547 2.7266-0.91016 4.2422h42.426c-0.15234-1.5156-0.45312-3.0273-0.91016-4.2422z"/>
  <path d="m69.547 91.211v-1.5156l-2.8789-2.8789c-16.516-1.3633-23.031-13.031-18.938-27.426 0.91016-3.4844 4.3945-3.332 4.5469-3.332 11.516 0 21.363 5.9102 21.816 18.938 0-2.4258 0.45312-5 1.5156-7.5742v-13.637c0-2.4258-0.15234-4.5469-0.45312-6.668l-43.035 0.003906c-0.45312 3.6367-0.45312 5.7578-0.45312 15.605v27.879c0 2.5742 1.2109 4.8477 3.1836 6.3633 1.3633 1.0625 3.0312 1.668 4.8477 1.668h28.184c2.4258 0 4.5469-1.0625 6.0625-2.7266-2.4297-0.45703-4.3984-2.4258-4.3984-4.6992z"/>
  <path d="m47.426 14.242h12.574c1.5156 0 2.8789-1.2109 2.8789-2.8789v-6.9688c0-1.5156-1.2109-2.8789-2.8789-2.8789h-12.574c-1.5156 0-2.8789 1.2109-2.8789 2.8789v7.1211c0 1.5156 1.3633 2.7266 2.8789 2.7266z"/>
  <path d="m14.848 26.816h10.605c1.5156 0 2.7266-1.2109 2.7266-2.5742v-6.0625c0-1.5156-1.2109-2.7266-2.7266-2.7266h-10.605c-1.5156 0-2.7266 1.2109-2.7266 2.7266v6.0625c0.15234 1.3633 1.2109 2.5742 2.7266 2.5742z"/>
  <path d="m31.969 34.09c-0.60547-1.2109-1.2109-2.5742-2.1211-4.2422h-19.242c-3.7891 7.5781-5.6055 10.758-7.1211 15.605h25.605c0.15234-0.14844 1.3633-7.5742 2.8789-11.363z"/>
  <path d="m28.789 48.484h-26.215c-0.30469 1.0625-0.45312 2.1211-0.75781 3.1836h26.668c0.15234-1.2148 0.30469-2.1211 0.30469-3.1836z"/>
  <path d="m28.637 54.695h-27.121c-0.45312 3.9375-0.45312 8.1836-0.30469 14.848 0 5.4531 0.15234 12.426 0 21.969 0 3.7891 3.1836 6.9688 6.9688 6.9688h23.789c-2.1211-2.1211-3.4844-4.8477-3.4844-8.0312 0.30469-23.633 0-27.723 0.15234-35.754z"/>
 </g>
</svg>
