<?xml version="1.0" encoding="UTF-8"?>
<svg width="257px" height="254px" viewBox="0 0 257 254" version="1.1" xmlns="http://www.w3.org/2000/svg" xmlns:xlink="http://www.w3.org/1999/xlink">
    <!-- Generator: Sketch 52.5 (67469) - http://www.bohemiancoding.com/sketch -->
    <title>np_recycle-bottle_2031424_000000</title>
    <desc>Created with Sketch.</desc>
    <g id="Page-1" stroke="none" stroke-width="1" fill="none" fill-rule="evenodd">
        <g id="np_recycle-bottle_2031424_000000">
            <path d="M253.882524,152.835935 C253.481991,151.245716 251.890086,150.045363 249.897701,150.045363 C215.636538,148.855279 192.928099,171.138675 201.699125,210.135249 L191.736807,220.087021 L182.175179,210.535516 C183.767083,203.774583 187.351556,182.280478 176.197945,167.559389 C163.462605,150.046413 135.568849,150.046413 134.377819,150.046413 C132.385382,150.046413 131.194115,151.236497 130.392997,152.836986 C130.392997,153.63723 128,161.588221 128,171.139988 C128,179.891223 129.591904,189.842995 135.569217,197.803414 C147.123256,212.525817 169.430741,214.916123 175.809191,214.916123 L187.763921,226.858197 L187.763921,234.019396 C187.763921,236.40986 189.756358,238 191.748743,238 C193.741181,238 195.733565,236.409781 195.733565,234.019396 L195.733565,226.858197 L207.688295,214.916123 C247.115845,213.71577 264.647381,187.062928 253.883418,152.83541 L253.882524,152.835935 Z" id="Path" fill="#378687"></path>
            <path d="M110.023478,41 C100.496964,60.9166899 92.1675844,75.2655839 87,92 L189,92 C182.655714,72.8742769 173.52842,57.3320959 165.587781,41 L110.023478,41 Z" id="Path" fill="#112F41"></path>
            <path d="M191.616951,100 L85.38127,100 C84.5841034,103.535029 83.7971666,107.070058 83,111 L194,111 C193.60143,107.070058 192.814493,103.150229 191.61873,100 L191.616951,100 Z" id="Path" fill="#112F41"></path>
            <path d="M180.135996,230.570887 L172.601537,223.027069 C129.376994,219.454702 112.326383,188.880871 123.038302,151.160472 C125.42031,142.030013 134.539286,142.42936 134.938136,142.42936 C165.077022,142.42936 190.847915,157.916341 192.033476,192.054154 C192.033476,185.697631 193.21935,178.952244 196,172.206856 L196,136.472707 C196,130.116185 195.601306,124.558092 194.814125,119 L82.1858746,119.010235 C81,128.539778 81,134.097871 81,159.901296 L81,232.954926 C81,239.700313 84.1690844,245.657752 89.3318996,249.629203 C92.8998349,252.413359 97.2649484,254 102.018968,254 L175.7802,254 C182.128837,254 187.680035,251.215844 191.646559,246.855266 C185.287715,245.657673 180.135368,240.498744 180.135368,234.541567 L180.135996,230.570887 Z" id="Path" fill="#112F41"></path>
            <path d="M121.538114,33 L154.461886,33 C158.430334,33 162,29.8601433 162,25.535029 L162,7.46497101 C162,3.53502899 158.829378,0 154.461886,0 L121.538114,0 C117.569666,0 114,3.13985668 114,7.46497101 L114,25.929942 C114,29.859884 117.569666,33 121.538114,33 Z" id="Path" fill="#112F41"></path>
            <path d="M36.1313846,66 L63.8686154,66 C67.8326462,66 71,62.8031294 71,59.2039108 L71,43.1984371 C71,39.1971346 67.8329078,36 63.8686154,36 L36.1313846,36 C32.1673538,36 29,39.1968706 29,43.1984371 L29,59.2039108 C29.3984432,62.8031294 32.1670922,66 36.1313846,66 Z" id="Path" fill="#112F41"></path>
            <path d="M81,85.1457994 C79.4057741,81.9643255 77.8116535,78.3824415 75.4150617,74 L24.7501317,74 C14.7732848,93.9104197 9.9906334,102.265171 6,115 L73.4189551,115 C73.8200722,114.609994 77.0085767,95.099827 80.9992101,85.145274 L81,85.1457994 Z" id="Path" fill="#112F41"></path>
            <path d="M73,123 L3.99476844,123 C3.19273891,125.669933 2.80202953,128.330067 2,131 L72.1976546,131 C72.5986562,127.947355 72.9996841,125.669933 73,123 Z" id="Path" fill="#112F41"></path>
            <path d="M72.2501059,139 L1.03220569,139 C-0.157656592,149.341538 -0.157656592,160.493589 0.232110486,177.997118 C0.232110486,192.319261 0.632144959,210.633041 0.232110486,235.696989 C0.232110486,245.648765 8.59202742,254 18.531705,254 L81,254 C75.4301358,248.429096 71.8502027,241.267893 71.8502027,232.906678 C72.6502979,170.83644 71.8502027,160.094373 72.2502372,139.001576 L72.2501059,139 Z" id="Path" fill="#112F41"></path>
        </g>
    </g>
</svg>