<?xml version="1.0" encoding="utf-8"?>
<!-- Generator: Adobe Illustrator 18.1.1, SVG Export Plug-In . SVG Version: 6.00 Build 0)  -->
<svg version="1.1" id="Layer_1" xmlns="http://www.w3.org/2000/svg" xmlns:xlink="http://www.w3.org/1999/xlink" x="0px" y="0px"
	 viewBox="-429 231 100 100" enable-background="new -429 231 100 100" xml:space="preserve">
<g>
	<path fill="#112F41" d="M-387.6,249.8h-27.7c-2.2,0-3.9,1.8-3.9,3.9v12.4c0,2.2,1.8,3.9,3.9,3.9h28c-1.5-3.2-2.3-6.7-2.3-10.4
		C-389.6,256.1-388.9,252.8-387.6,249.8L-387.6,249.8z M-409.1,264.3c-2.4,0-4.4-2-4.4-4.4c0-2.4,2-4.4,4.4-4.4c2.4,0,4.4,2,4.4,4.4
		C-404.7,262.4-406.6,264.3-409.1,264.3z"/>
	<path fill="#112F41" d="M-364.6,284.7c-8.2,0-15.4-3.9-19.9-10h-30.8c-2.2,0-3.9,1.8-3.9,3.9V291c0,2.2,1.8,3.9,3.9,3.9h53.7
		c2.2,0,3.9-1.8,3.9-3.9v-7.1l-0.2-0.2C-360,284.3-362.3,284.7-364.6,284.7L-364.6,284.7z M-409.1,289.2c-2.4,0-4.4-2-4.4-4.4
		s2-4.4,4.4-4.4c2.4,0,4.4,2,4.4,4.4C-404.7,287.2-406.6,289.2-409.1,289.2z"/>
	<path fill="#112F41" d="M-361.6,299.6h-53.7c-2.2,0-3.9,1.8-3.9,3.9v12.4c0,2.2,1.8,3.9,3.9,3.9h53.7c2.2,0,3.9-1.8,3.9-3.9l0-12.4
		C-357.6,301.3-359.4,299.6-361.6,299.6z M-409.1,314.1c-2.4,0-4.4-2-4.4-4.4c0-2.4,2-4.4,4.4-4.4c2.4,0,4.4,2,4.4,4.4
		C-404.7,312.1-406.6,314.1-409.1,314.1z"/>
	<path fill="#52B99F" d="M-335.5,278.4l-10.6-10.6c1.1-2.5,1.8-5.3,1.8-8.3c0-11.2-9.2-20.4-20.4-20.4c-11.2,0-20.4,9.1-20.4,20.4
		c0,11.2,9.1,20.4,20.4,20.4c3,0,5.8-0.6,8.3-1.8l10.6,10.6c1.4,1.4,3.3,2.1,5.1,2.1c1.9,0,3.7-0.7,5.1-2.1c1.4-1.4,2.1-3.3,2.1-5.2
		C-333.4,281.7-334.1,279.8-335.5,278.4L-335.5,278.4z M-364.7,272.8c-7.3,0-13.3-6-13.3-13.3s5.9-13.3,13.3-13.3
		c7.3,0,13.3,5.9,13.3,13.3C-351.5,266.8-357.4,272.8-364.7,272.8z"/>
</g>
</svg>
